<svg width="80" height="80" viewBox="0 0 80 80" fill="none" xmlns="http://www.w3.org/2000/svg">
<rect width="80" height="80" rx="10" fill="#EBEEF2"/>
<path fill-rule="evenodd" clip-rule="evenodd" d="M23.851 47.4239C25.8603 45.4145 28.5856 44.2857 31.4272 44.2857H48.57C51.4116 44.2857 54.1369 45.4145 56.1462 47.4239C58.1555 49.4332 59.2843 52.1584 59.2843 55V59.2857C59.2843 60.4692 58.3249 61.4286 57.1415 61.4286C55.958 61.4286 54.9986 60.4692 54.9986 59.2857V55C54.9986 53.295 54.3213 51.6599 53.1157 50.4543C51.9101 49.2487 50.275 48.5714 48.57 48.5714H31.4272C29.7222 48.5714 28.0871 49.2487 26.8815 50.4543C25.6759 51.6599 24.9986 53.295 24.9986 55V59.2857C24.9986 60.4692 24.0392 61.4286 22.8557 61.4286C21.6723 61.4286 20.7129 60.4692 20.7129 59.2857V55C20.7129 52.1584 21.8417 49.4332 23.851 47.4239Z" fill="#6379F4"/>
<path fill-rule="evenodd" clip-rule="evenodd" d="M39.9994 22.8571C36.449 22.8571 33.5709 25.7353 33.5709 29.2857C33.5709 32.8361 36.449 35.7143 39.9994 35.7143C43.5498 35.7143 46.428 32.8361 46.428 29.2857C46.428 25.7353 43.5498 22.8571 39.9994 22.8571ZM29.2852 29.2857C29.2852 23.3684 34.0821 18.5714 39.9994 18.5714C45.9168 18.5714 50.7137 23.3684 50.7137 29.2857C50.7137 35.203 45.9168 40 39.9994 40C34.0821 40 29.2852 35.203 29.2852 29.2857Z" fill="#6379F4"/>
</svg>
